<svg width="22" height="21" viewBox="0 0 22 21" fill="none" xmlns="http://www.w3.org/2000/svg">
<path d="M19.7891 0.335544C19.5257 0.35555 19.2671 0.420061 19.0234 0.52656H19.0201C18.7862 0.623353 17.6742 1.1116 15.9835 1.85168L9.92513 4.51478C5.57787 6.42494 1.30448 8.30598 1.30448 8.30598L1.35536 8.28543C1.35536 8.28543 1.06073 8.3865 0.752967 8.60664C0.562833 8.73292 0.399223 8.89814 0.272036 9.09232C0.121027 9.3236 -0.000437211 9.67736 0.0447014 10.0431C0.118565 10.6616 0.502653 11.0325 0.778408 11.2372C1.05745 11.4445 1.32335 11.5413 1.32335 11.5413H1.32992L5.33741 12.9503C5.51714 13.5525 6.55861 17.1261 6.80892 17.9493C6.95665 18.441 7.10027 18.7485 7.28 18.9832C7.367 19.1031 7.46877 19.2033 7.59105 19.2839C7.65462 19.3225 7.7224 19.3529 7.79294 19.3747L7.75191 19.3644C7.76422 19.3678 7.77407 19.3781 7.78309 19.3815C7.81592 19.3909 7.83808 19.3944 7.87994 19.4012C8.51434 19.6017 9.024 19.1905 9.024 19.1905L9.05272 19.1665L11.4188 16.918L15.3844 20.0933L15.4747 20.1336C16.3012 20.5122 17.1383 20.3015 17.5806 19.9297C18.0263 19.5554 18.1994 19.0766 18.1994 19.0766L18.2282 18.9995L21.2927 2.61404C21.3797 2.20973 21.4018 1.83113 21.3058 1.46365C21.2068 1.09175 20.9781 0.77189 20.6648 0.566819C20.4017 0.399885 20.0966 0.31931 19.7891 0.335544ZM19.7062 2.09152C19.703 2.14549 19.7128 2.13949 19.6898 2.24314V2.25256L16.6541 18.4675C16.6409 18.4907 16.6188 18.5412 16.558 18.5917C16.494 18.6449 16.4431 18.6783 16.1764 18.5678L11.3261 14.6866L8.39616 17.4739L9.01168 13.3709L16.9364 5.66173C17.263 5.3448 17.1539 5.27799 17.1539 5.27799C17.1768 4.8891 16.6606 5.16406 16.6606 5.16406L6.66776 11.6252L6.66448 11.6081L1.87487 9.92491V9.92148L1.86256 9.91891C1.87095 9.91601 1.87917 9.91257 1.88718 9.90864L1.91344 9.89493L1.93888 9.88551C1.93888 9.88551 6.21556 8.00447 10.5628 6.0943C12.7393 5.13751 14.9322 4.17386 16.6188 3.43035C18.3053 2.69113 19.552 2.14891 19.6225 2.11979C19.6898 2.09238 19.6578 2.09238 19.7062 2.09238V2.09152Z" fill="#ED553B"/>
</svg>
